<svg id="Layer_1" data-name="Layer 1" xmlns="http://www.w3.org/2000/svg" viewBox="0 0 128 128"><defs><style>.cls-1{fill:#a3a7e4;}.cls-1,.cls-2,.cls-3,.cls-4{stroke:#383f51;stroke-linecap:round;stroke-linejoin:round;stroke-width:2px;}.cls-2,.cls-5{fill:none;}.cls-3{fill:#ff7d7d;}.cls-4{fill:#f1c550;}</style></defs><title>Cat</title><path class="cls-1" d="M102,100c0,8-8.05,14.61-18.57,15.81A77,77,0,0,1,50.14,123C30.73,123,15,112.25,15,99A14.18,14.18,0,0,1,29.35,85,8.76,8.76,0,0,1,38,93.87a5.06,5.06,0,0,1-1.55,3.62A3.36,3.36,0,0,0,33.66,96a6,6,0,0,0-4.11,1.57A4.67,4.67,0,0,0,28,101c0,6.53,10.84,11.83,24.35,12a19.33,19.33,0,0,0,.65-5,27.64,27.64,0,0,0-5.69-17.11A12.18,12.18,0,0,1,45,83.63C45,75.55,51.72,68,60,68V59l26,1,0,4c-2.78,0-5,2.69-5,6s1.65,6.62,4.31,8C95.14,82.91,102,90.68,102,100Z"/><path class="cls-1" d="M111,41l-3.61-2.71c0-.15.06-.3.09-.45L113,36s-6-2-6-2a56.23,56.23,0,0,0-10-6.6V27A33.52,33.52,0,0,0,89.38,5.69,32.17,32.17,0,0,0,77.73,21a71.41,71.41,0,0,0-23.46,0A32.17,32.17,0,0,0,42.62,5.69,33.52,33.52,0,0,0,35,27v.4A56.23,56.23,0,0,0,25,34s-6,2-6,2l5.52,1.84c0,.15.05.3.09.45L21,41h4.25c.09.32.19.65.29,1L21,45h5.67C32.64,59,48,69,66,69s33.36-10,39.33-24H111l-4.54-3c.1-.32.2-.65.29-1Z"/><path class="cls-2" d="M74,111a103.22,103.22,0,0,1-21,2.06"/><path class="cls-2" d="M73,43a9,9,0,0,1,15,0l4-3"/><line class="cls-2" x1="86.07" y1="40.91" x2="89" y2="37"/><path class="cls-2" d="M59,43a9,9,0,0,0-15,0l-4-3"/><line class="cls-2" x1="45.93" y1="40.91" x2="43" y2="37"/><path class="cls-3" d="M71.5,55c-1.33,3.09-4.89,7-5.5,7s-4.17-3.94-5.5-7a4.07,4.07,0,0,0,.5,0,5,5,0,0,0,5-5,5,5,0,0,0,5,5A4.07,4.07,0,0,0,71.5,55Z"/><path class="cls-2" d="M66,50a5,5,0,0,0,8,4"/><path class="cls-2" d="M66,50a5,5,0,0,1-8,4"/><path class="cls-4" d="M70,47.59C70,49,68.43,50.25,66,51c-2.43-.75-4-2-4-3.41a.79.79,0,0,1,0-.25,23.11,23.11,0,0,1,7.95,0A.79.79,0,0,1,70,47.59Z"/><rect class="cls-5" width="128" height="128"/></svg>